<?xml version="1.0" encoding="UTF-8" standalone="no"?>
<!-- Created with Inkscape (http://www.inkscape.org/) -->

<svg
   width="49.895mm"
   height="39.419029mm"
   viewBox="0 0 49.895002 39.419037"
   version="1.1"
   id="svg1"
   xml:space="preserve"
   sodipodi:docname="mcu_use_case.svg"
   inkscape:version="1.3 (1:1.3+202307231459+0e150ed6c4)"
   xmlns:inkscape="http://www.inkscape.org/namespaces/inkscape"
   xmlns:sodipodi="http://sodipodi.sourceforge.net/DTD/sodipodi-0.dtd"
   xmlns="http://www.w3.org/2000/svg"
   xmlns:svg="http://www.w3.org/2000/svg"><sodipodi:namedview
     id="namedview1"
     pagecolor="#ffffff"
     bordercolor="#000000"
     borderopacity="0.25"
     inkscape:showpageshadow="2"
     inkscape:pageopacity="0.0"
     inkscape:pagecheckerboard="0"
     inkscape:deskcolor="#d1d1d1"
     inkscape:document-units="mm"
     showgrid="false"
     inkscape:zoom="5.336857"
     inkscape:cx="99.965205"
     inkscape:cy="83.569787"
     inkscape:window-width="2560"
     inkscape:window-height="1391"
     inkscape:window-x="1920"
     inkscape:window-y="49"
     inkscape:window-maximized="1"
     inkscape:current-layer="svg1" /><defs
     id="defs1"><marker
       style="overflow:visible"
       id="marker6"
       refX="0"
       refY="0"
       orient="auto-start-reverse"
       inkscape:stockid="Wide, heavy arrow"
       markerWidth="1"
       markerHeight="1"
       viewBox="0 0 1 1"
       inkscape:isstock="true"
       inkscape:collect="always"
       preserveAspectRatio="xMidYMid"
       markerUnits="userSpaceOnUse"><path
         style="fill:context-stroke;fill-rule:evenodd;stroke:none"
         d="m 1,0 -3,3 h -2 l 3,-3 -3,-3 h 2 z"
         id="path6" /></marker><marker
       style="overflow:visible"
       id="marker4"
       refX="0"
       refY="0"
       orient="auto-start-reverse"
       inkscape:stockid="Wide, heavy arrow"
       markerWidth="1"
       markerHeight="1"
       viewBox="0 0 1 1"
       inkscape:isstock="true"
       inkscape:collect="always"
       preserveAspectRatio="xMidYMid"
       markerUnits="userSpaceOnUse"><path
         style="fill:context-stroke;fill-rule:evenodd;stroke:none"
         d="m 1,0 -3,3 h -2 l 3,-3 -3,-3 h 2 z"
         id="path4" /></marker><marker
       style="overflow:visible"
       id="marker12"
       refX="-0.5"
       refY="0"
       orient="auto-start-reverse"
       markerWidth="0.001"
       markerHeight="0.001"
       viewBox="0 0 1 1"
       preserveAspectRatio="xMidYMid"
       markerUnits="strokeWidth"><path
         style="fill:context-stroke;fill-rule:evenodd;stroke:none"
         d="m 1,0 -3,3 h -2 l 3,-3 -3,-3 h 2 z"
         id="path12" /></marker><marker
       style="overflow:visible"
       id="ArrowWideHeavy"
       refX="-0.5"
       refY="0"
       orient="auto-start-reverse"
       markerWidth="0.40000001"
       markerHeight="0.40000001"
       viewBox="0 0 1 1"
       preserveAspectRatio="xMidYMid"
       markerUnits="userSpaceOnUse"><path
         style="fill:context-stroke;fill-rule:evenodd;stroke:none"
         d="m 1,0 -3,3 h -2 l 3,-3 -3,-3 h 2 z"
         id="path3" /></marker></defs><path
     d="m 8.4427432,18.927938 v 1.603923 H 6.842299 v 1.603953 H 5.2418852 v 0.801961 H 6.842299 v 0.801991 H 5.2418852 v 0.801962 H 6.842299 v 0.801961 H 5.2418852 V 26.14568 H 6.842299 v 0.801962 H 5.2418852 v 0.801961 H 6.842299 v 0.801991 H 5.2418852 v 0.801962 H 6.842299 v 0.801961 H 5.2418852 v 0.801991 H 6.842299 v 1.603923 h 1.6004442 v 1.603953 h 0.8002069 v -1.603953 h 0.8002369 v 1.603953 h 0.800207 v -1.603953 h 0.800207 v 1.603953 h 0.800237 v -1.603953 h 0.800207 v 1.603953 h 0.800207 v -1.603953 h 0.800238 v 1.603953 h 0.800207 v -1.603953 h 0.800207 v 1.603953 h 0.800237 v -1.603953 h 1.600414 v -1.603923 h 1.600444 v -0.801991 h -1.600444 v -0.801961 h 1.600444 v -0.801962 h -1.600444 v -0.801991 h 1.600444 V 26.947642 H 18.845555 V 26.14568 h 1.600444 v -0.801991 h -1.600444 v -0.801961 h 1.600444 v -0.801962 h -1.600444 v -0.801991 h 1.600444 v -0.801961 h -1.600444 v -0.400981 l -1.200311,-1.202972 h -0.400103 v -1.603923 h -0.800237 v 1.603923 H 15.644697 V 18.927938 H 14.84449 v 1.603923 h -0.800238 v -1.603923 h -0.800207 v 1.603923 h -0.800207 v -1.603923 h -0.800237 v 1.603923 h -0.800207 v -1.603923 h -0.800207 v 1.603923 H 9.2429501 v -1.603923 z m -0.800207,2.405914 h 9.6026048 l 0.800207,0.801962 V 31.75947 H 7.6425362 Z"
     style="fill:#000000;fill-opacity:1;stroke:none;stroke-width:0px"
     id="path1" /><path
     id="rect5"
     style="fill:none;stroke:#000000;stroke-width:0.4;stroke-dasharray:none;stroke-opacity:1"
     d="M 24.8208,5.6192554 V 13.0435 l 1.493984,1.668974 H 48.411451 V 7.288229 L 46.917467,5.6192554 Z" /><text
     xml:space="preserve"
     style="font-size:6.40876px;font-family:'JetBrainsMonoNL Nerd Font';-inkscape-font-specification:'JetBrainsMonoNL Nerd Font';fill:#000000;fill-opacity:1;stroke:#000000;stroke-width:0.2;stroke-opacity:1"
     x="29.023434"
     y="12.525981"
     id="text5"
     transform="scale(0.99890569,1.0010955)"><tspan
       id="tspan5"
       style="font-size:6.40876px;fill:#000000;fill-opacity:1;stroke:none;stroke-width:0.2"
       x="29.023434"
       y="12.525981">TIM2</tspan></text><path
     style="fill:none;fill-opacity:1;stroke:#000000;stroke-width:1.60001;stroke-linecap:butt;stroke-linejoin:bevel;stroke-dasharray:none;stroke-opacity:1;marker-start:url(#marker6);marker-end:url(#marker4)"
     d="m 21.393246,26.535688 15.914998,0.117987 v -10.83272"
     id="path5" /><text
     xml:space="preserve"
     style="font-size:8.54502px;font-family:'JetBrainsMonoNL Nerd Font';-inkscape-font-specification:'JetBrainsMonoNL Nerd Font';fill:#222222;fill-opacity:1;stroke:none;stroke-width:0.9;stroke-linecap:butt;stroke-linejoin:bevel;stroke-dasharray:none;stroke-opacity:1"
     x="7.6346092"
     y="-18.09738"
     id="text12"
     transform="scale(0.99890569,1.0010955)"><tspan
       id="tspan12"
       style="fill:#222222;fill-opacity:1;stroke:none;stroke-width:0.9"
       x="7.6346092"
       y="-18.09738" /></text><text
     xml:space="preserve"
     style="font-size:6.40876px;font-family:'JetBrainsMonoNL Nerd Font';-inkscape-font-specification:'JetBrainsMonoNL Nerd Font';fill:#000000;fill-opacity:1;stroke:none;stroke-width:0.9;stroke-linecap:butt;stroke-linejoin:bevel;stroke-dasharray:none;stroke-opacity:1"
     x="3.2705252"
     y="6.7778368"
     id="text13"
     transform="scale(0.99890569,1.0010955)"><tspan
       id="tspan13"
       style="font-size:6.40876px;fill:#000000;fill-opacity:1;stroke-width:0.9"
       x="3.2705252"
       y="6.7778368">MCU</tspan></text><rect
     style="fill:none;stroke:#000000;stroke-width:0.4;stroke-linejoin:round;stroke-dasharray:none;stroke-opacity:1"
     id="rect1"
     width="49.494999"
     height="39.019028"
     x="0.2"
     y="0.2" /><rect
     style="fill:none;stroke:#000000;stroke-width:0.4;stroke-linejoin:round;stroke-dasharray:none;stroke-opacity:1"
     id="rect2"
     width="17.541767"
     height="8.4870033"
     x="0.2"
     y="0.2" /></svg>
