<?xml version="1.0" encoding="UTF-8" standalone="no"?>
<!-- Created with Inkscape (http://www.inkscape.org/) -->

<svg
   width="16.565001mm"
   height="13.073009mm"
   viewBox="0 0 16.565001 13.073011"
   version="1.1"
   id="svg1"
   xml:space="preserve"
   sodipodi:docname="mcu_use_case_dark.svg"
   inkscape:version="1.3 (1:1.3+202307231459+0e150ed6c4)"
   xmlns:inkscape="http://www.inkscape.org/namespaces/inkscape"
   xmlns:sodipodi="http://sodipodi.sourceforge.net/DTD/sodipodi-0.dtd"
   xmlns="http://www.w3.org/2000/svg"
   xmlns:svg="http://www.w3.org/2000/svg"><sodipodi:namedview
     id="namedview1"
     pagecolor="#ffffff"
     bordercolor="#000000"
     borderopacity="0.25"
     inkscape:showpageshadow="2"
     inkscape:pageopacity="0.0"
     inkscape:pagecheckerboard="0"
     inkscape:deskcolor="#d1d1d1"
     inkscape:document-units="mm"
     showgrid="false"
     inkscape:zoom="15.094911"
     inkscape:cx="18.714917"
     inkscape:cy="31.070074"
     inkscape:window-width="2560"
     inkscape:window-height="1391"
     inkscape:window-x="1920"
     inkscape:window-y="49"
     inkscape:window-maximized="1"
     inkscape:current-layer="svg1" /><defs
     id="defs1"><marker
       style="overflow:visible"
       id="marker12"
       refX="-0.5"
       refY="0"
       orient="auto-start-reverse"
       markerWidth="0.40000001"
       markerHeight="0.40000001"
       viewBox="0 0 1 1"
       preserveAspectRatio="xMidYMid"
       markerUnits="userSpaceOnUse"><path
         style="fill:context-stroke;fill-rule:evenodd;stroke:none"
         d="m 1,0 -3,3 h -2 l 3,-3 -3,-3 h 2 z"
         id="path12" /></marker><marker
       style="overflow:visible"
       id="ArrowWideHeavy"
       refX="-0.5"
       refY="0"
       orient="auto-start-reverse"
       markerWidth="0.40000001"
       markerHeight="0.40000001"
       viewBox="0 0 1 1"
       preserveAspectRatio="xMidYMid"
       markerUnits="userSpaceOnUse"><path
         style="fill:context-stroke;fill-rule:evenodd;stroke:none"
         d="m 1,0 -3,3 h -2 l 3,-3 -3,-3 h 2 z"
         id="path3" /></marker></defs><path
     d="m 2.825376,6.27865 v 0.52916 h -0.52917 v 0.52917 h -0.52916 v 0.26458 h 0.52916 v 0.26459 h -0.52916 v 0.26458 h 0.52916 V 8.39531 H 1.767046 V 8.6599 h 0.52916 v 0.26458 h -0.52916 v 0.26458 h 0.52916 v 0.26459 h -0.52916 v 0.26458 h 0.52916 v 0.26458 h -0.52916 v 0.26459 h 0.52916 v 0.52916 h 0.52917 v 0.52917 h 0.26458 v -0.52917 h 0.26459 v 0.52917 h 0.26458 v -0.52917 h 0.26458 v 0.52917 h 0.26459 v -0.52917 h 0.26458 v 0.52917 h 0.26458 v -0.52917 h 0.26459 v 0.52917 h 0.26458 v -0.52917 h 0.26458 v 0.52917 h 0.26459 v -0.52917 h 0.52916 V 10.2474 h 0.52917 V 9.98281 H 6.264956 V 9.71823 h 0.52917 V 9.45365 H 6.264956 V 9.18906 h 0.52917 V 8.92448 H 6.264956 V 8.6599 h 0.52917 V 8.39531 H 6.264956 V 8.13073 h 0.52917 V 7.86615 H 6.264956 V 7.60156 h 0.52917 V 7.33698 H 6.264956 V 7.20469 L 5.868086,6.80781 H 5.735796 V 6.27865 H 5.471206 V 6.80781 H 5.206626 V 6.27865 H 4.942046 V 6.80781 H 4.677456 V 6.27865 H 4.412876 V 6.80781 H 4.148296 V 6.27865 H 3.883706 V 6.80781 H 3.619126 V 6.27865 H 3.354546 V 6.80781 H 3.089956 V 6.27865 Z M 2.560796,7.0724 h 3.175 l 0.26458,0.26458 v 3.175 h -3.43958 z"
     style="fill:#e7e7e7;fill-opacity:1;stroke:none;stroke-width:0px"
     id="path1" /><path
     id="rect5"
     style="fill:none;stroke:#e6e6e6;stroke-width:0.2;stroke-opacity:1"
     d="M 8.240608,1.8879 V 4.3372786 L 8.734578,4.8879 h 7.30603 V 2.4385214 L 15.546638,1.8879 Z" /><text
     xml:space="preserve"
     style="font-size:2.11667px;font-family:'JetBrainsMonoNL Nerd Font';-inkscape-font-specification:'JetBrainsMonoNL Nerd Font';fill:#e7e7e7;fill-opacity:1;stroke:#000000;stroke-width:0.2;stroke-opacity:1"
     x="9.6196632"
     y="4.1710677"
     id="text5"><tspan
       id="tspan5"
       style="font-size:2.11667px;fill:#e7e7e7;fill-opacity:1;stroke:none;stroke-width:0.2"
       x="9.6196632"
       y="4.1710677">TIM2</tspan></text><path
     style="fill:none;fill-opacity:1;stroke:#e6e6e6;stroke-width:0.9;stroke-linecap:butt;stroke-linejoin:bevel;stroke-dasharray:none;stroke-opacity:1;marker-start:url(#marker12);marker-end:url(#ArrowWideHeavy)"
     d="m 7.3941108,8.82085 4.9934822,0.0356 V 5.5879"
     id="path5" /><text
     xml:space="preserve"
     style="font-size:2.82223px;font-family:'JetBrainsMonoNL Nerd Font';-inkscape-font-specification:'JetBrainsMonoNL Nerd Font';fill:#222222;fill-opacity:1;stroke:none;stroke-width:0.899999;stroke-linecap:butt;stroke-linejoin:bevel;stroke-dasharray:none;stroke-opacity:1"
     x="2.5554128"
     y="-5.9431434"
     id="text12"><tspan
       id="tspan12"
       style="fill:#222222;fill-opacity:1;stroke:none;stroke-width:0.9"
       x="2.5554128"
       y="-5.9431434" /></text><text
     xml:space="preserve"
     style="font-size:2.11667px;font-family:'JetBrainsMonoNL Nerd Font';-inkscape-font-specification:'JetBrainsMonoNL Nerd Font';fill:#e7e7e7;fill-opacity:1;stroke:none;stroke-width:0.899999;stroke-linecap:butt;stroke-linejoin:bevel;stroke-dasharray:none;stroke-opacity:1"
     x="1.1140534"
     y="2.2725844"
     id="text13"><tspan
       id="tspan13"
       style="font-size:2.11667px;stroke-width:0.9;fill:#e7e7e7;fill-opacity:1"
       x="1.1140534"
       y="2.2725844">MCU</tspan></text><rect
     style="fill:none;stroke:#e6e6e6;stroke-width:0.2;stroke-linejoin:round;stroke-dasharray:none;stroke-opacity:1"
     id="rect1"
     width="16.365"
     height="12.87301"
     x="0.1"
     y="0.1" /><rect
     style="fill:none;stroke:#e6e6e6;stroke-width:0.2;stroke-linejoin:round;stroke-dasharray:none;stroke-opacity:1"
     id="rect2"
     width="5.8000002"
     height="2.8"
     x="0.10000001"
     y="0.1" /></svg>
