<?xml version="1.0" encoding="UTF-8" standalone="no"?>
<!-- Created with Inkscape (http://www.inkscape.org/) -->

<svg
   width="123.83191mm"
   height="39.419029mm"
   viewBox="0 0 123.83191 39.41904"
   version="1.1"
   id="svg1"
   xml:space="preserve"
   sodipodi:docname="serial_use_case_dark.svg"
   inkscape:version="1.3 (1:1.3+202307231459+0e150ed6c4)"
   xmlns:inkscape="http://www.inkscape.org/namespaces/inkscape"
   xmlns:sodipodi="http://sodipodi.sourceforge.net/DTD/sodipodi-0.dtd"
   xmlns="http://www.w3.org/2000/svg"
   xmlns:svg="http://www.w3.org/2000/svg"><sodipodi:namedview
     id="namedview1"
     pagecolor="#ffffff"
     bordercolor="#000000"
     borderopacity="0.25"
     inkscape:showpageshadow="2"
     inkscape:pageopacity="0.0"
     inkscape:pagecheckerboard="0"
     inkscape:deskcolor="#d1d1d1"
     inkscape:document-units="mm"
     inkscape:zoom="2.8662013"
     inkscape:cx="196.42724"
     inkscape:cy="54.427441"
     inkscape:window-width="2560"
     inkscape:window-height="1391"
     inkscape:window-x="1920"
     inkscape:window-y="49"
     inkscape:window-maximized="1"
     inkscape:current-layer="svg1" /><defs
     id="defs1"><marker
       style="overflow:visible"
       id="marker12"
       refX="-0.5"
       refY="0"
       orient="auto-start-reverse"
       markerWidth="0.40000001"
       markerHeight="0.40000001"
       viewBox="0 0 1 1"
       preserveAspectRatio="xMidYMid"
       markerUnits="userSpaceOnUse"><path
         style="fill:context-stroke;fill-rule:evenodd;stroke:none"
         d="m 1,0 -3,3 h -2 l 3,-3 -3,-3 h 2 z"
         id="path12" /></marker><marker
       style="overflow:visible"
       id="ArrowWideHeavy"
       refX="-0.5"
       refY="0"
       orient="auto-start-reverse"
       markerWidth="0.40000001"
       markerHeight="0.40000001"
       viewBox="0 0 1 1"
       preserveAspectRatio="xMidYMid"
       markerUnits="userSpaceOnUse"><path
         style="fill:context-stroke;fill-rule:evenodd;stroke:none"
         d="m 1,0 -3,3 h -2 l 3,-3 -3,-3 h 2 z"
         id="path3" /></marker><marker
       style="overflow:visible"
       id="marker12-1"
       refX="-0.5"
       refY="0"
       orient="auto-start-reverse"
       markerWidth="0.40000001"
       markerHeight="0.40000001"
       viewBox="0 0 1 1"
       preserveAspectRatio="xMidYMid"
       markerUnits="userSpaceOnUse"><path
         style="fill:context-stroke;fill-rule:evenodd;stroke:none"
         d="m 1,0 -3,3 h -2 l 3,-3 -3,-3 h 2 z"
         id="path12-2" /></marker><marker
       style="overflow:visible"
       id="ArrowWideHeavy-7"
       refX="-0.5"
       refY="0"
       orient="auto-start-reverse"
       markerWidth="0.40000001"
       markerHeight="0.40000001"
       viewBox="0 0 1 1"
       preserveAspectRatio="xMidYMid"
       markerUnits="userSpaceOnUse"><path
         style="fill:context-stroke;fill-rule:evenodd;stroke:none"
         d="m 1,0 -3,3 h -2 l 3,-3 -3,-3 h 2 z"
         id="path3-0" /></marker><marker
       style="overflow:visible"
       id="marker12-8"
       refX="-0.5"
       refY="0"
       orient="auto-start-reverse"
       markerWidth="0.40000001"
       markerHeight="0.40000001"
       viewBox="0 0 1 1"
       preserveAspectRatio="xMidYMid"
       markerUnits="userSpaceOnUse"><path
         style="fill:context-stroke;fill-rule:evenodd;stroke:none"
         d="m 1,0 -3,3 h -2 l 3,-3 -3,-3 h 2 z"
         id="path12-7" /></marker><marker
       style="overflow:visible"
       id="ArrowWideHeavy-9"
       refX="-0.5"
       refY="0"
       orient="auto-start-reverse"
       markerWidth="0.40000001"
       markerHeight="0.40000001"
       viewBox="0 0 1 1"
       preserveAspectRatio="xMidYMid"
       markerUnits="userSpaceOnUse"><path
         style="fill:context-stroke;fill-rule:evenodd;stroke:none"
         d="m 1,0 -3,3 h -2 l 3,-3 -3,-3 h 2 z"
         id="path3-2" /></marker></defs><path
     d="m 8.4027089,18.927938 v 1.603923 h -1.592672 v 1.603953 h -1.592641 v 0.801961 h 1.592641 v 0.801991 h -1.592641 v 0.801962 h 1.592641 v 0.801961 h -1.592641 v 0.801991 h 1.592641 v 0.801962 h -1.592641 v 0.801961 h 1.592641 v 0.801991 h -1.592641 v 0.801962 h 1.592641 v 0.801961 h -1.592641 v 0.801991 h 1.592641 v 1.603923 h 1.592672 v 1.603953 h 0.79632 v -1.603953 h 0.796351 v 1.603953 h 0.7963211 v -1.603953 h 0.79632 v 1.603953 h 0.796351 v -1.603953 h 0.79632 v 1.603953 h 0.796321 v -1.603953 h 0.796351 v 1.603953 h 0.79632 v -1.603953 h 0.796321 v 1.603953 h 0.796351 v -1.603953 h 1.592641 v -1.603923 h 1.592671 v -0.801991 h -1.592671 v -0.801961 h 1.592671 v -0.801962 h -1.592671 v -0.801991 h 1.592671 V 26.947642 H 18.754997 V 26.14568 h 1.592671 v -0.801991 h -1.592671 v -0.801961 h 1.592671 v -0.801962 h -1.592671 v -0.801991 h 1.592671 v -0.801961 h -1.592671 v -0.400981 l -1.194481,-1.202972 h -0.39816 v -1.603923 h -0.796351 v 1.603923 h -0.796321 v -1.603923 h -0.79632 v 1.603923 h -0.796351 v -1.603923 h -0.796321 v 1.603923 h -0.79632 v -1.603923 h -0.796351 v 1.603923 h -0.79632 V 18.927938 H 9.9953799 v 1.603923 h -0.796351 v -1.603923 z m -0.796321,2.405914 h 9.5559681 l 0.79632,0.801962 V 31.75947 H 7.6063879 Z"
     style="fill:#e5e5e5;fill-opacity:1;stroke:none;stroke-width:0px"
     id="path1" /><path
     id="rect5"
     style="fill:none;stroke:#e6e6e6;stroke-width:0.4;stroke-dasharray:none;stroke-opacity:1"
     d="m 85.378427,5.7098406 v 7.4242454 l 1.486728,1.668973 H 108.8545 V 7.3788141 l -1.48672,-1.6689735 z" /><text
     xml:space="preserve"
     style="font-size:6.39318px;font-family:'JetBrainsMonoNL Nerd Font';-inkscape-font-specification:'JetBrainsMonoNL Nerd Font';fill:#e5e5e5;fill-opacity:1;stroke:#000000;stroke-width:0.2;stroke-opacity:1"
     x="89.845543"
     y="12.585793"
     id="text5"
     transform="scale(0.99647705,1.0035354)"><tspan
       id="tspan5"
       style="font-size:6.39318px;fill:#e5e5e5;fill-opacity:1;stroke:none;stroke-width:0.2"
       x="89.845543"
       y="12.585793">TIM2</tspan></text><g
     id="path5"
     style="fill:#e7e7e7;fill-opacity:1"><path
       style="color:#000000;fill:#e7e7e7;stroke-linejoin:bevel;-inkscape-stroke:none;fill-opacity:1"
       d="m 21.294922,25.833984 -0.0098,1.59961 18.923828,0.107422 0.0098,-1.59961 z"
       id="path9" /><g
       id="g7"
       style="fill:#e7e7e7;fill-opacity:1"><path
         style="color:#000000;fill:#e7e7e7;fill-rule:evenodd;-inkscape-stroke:none;fill-opacity:1"
         d="m 41.213713,26.741438 -3,3 h -2 l 3,-3 -3,-3 h 2 z"
         id="path8" /><path
         style="color:#000000;fill:#e7e7e7;fill-rule:evenodd;-inkscape-stroke:none;fill-opacity:1"
         d="m 20.290284,26.62783 3.017058,-2.982845 1.999967,0.0114 -3.017057,2.982845 2.982845,3.017058 -1.999968,-0.0114 z"
         id="path7" /></g></g><g
     id="path5-2"
     style="fill:#e7e7e7;fill-opacity:1"><path
       style="color:#000000;fill:#e7e7e7;stroke-linejoin:bevel;-inkscape-stroke:none;fill-opacity:1"
       d="M 96.958984,15.912109 V 25.9375 L 83.3125,25.826172 l -0.01367,1.599609 14.453125,0.119141 0.806641,-0.800781 V 15.912109 Z"
       id="path16" /><g
       id="g14"
       style="fill:#e7e7e7;fill-opacity:1"><path
         style="color:#000000;fill:#e7e7e7;fill-rule:evenodd;-inkscape-stroke:none;fill-opacity:1"
         d="m 97.758277,14.911488 3.000003,3 v 2 l -3.000003,-3 -3,3 v -2 z"
         id="path15" /><path
         style="color:#000000;fill:#e7e7e7;fill-rule:evenodd;-inkscape-stroke:none;fill-opacity:1"
         d="m 82.305747,26.617933 3.02439,-2.97541 1.999934,0.01633 -3.02439,2.97541 2.97541,3.02439 -1.999934,-0.01633 z"
         id="path14" /></g></g><text
     xml:space="preserve"
     style="font-size:8.52425px;font-family:'JetBrainsMonoNL Nerd Font';-inkscape-font-specification:'JetBrainsMonoNL Nerd Font';fill:#222222;fill-opacity:1;stroke:none;stroke-width:0.899999;stroke-linecap:butt;stroke-linejoin:bevel;stroke-dasharray:none;stroke-opacity:1"
     x="7.6170206"
     y="-18.053381"
     id="text12"
     transform="scale(0.99647705,1.0035354)"><tspan
       id="tspan12"
       style="fill:#222222;fill-opacity:1;stroke:none;stroke-width:0.899999"
       x="7.6170206"
       y="-18.053381" /></text><text
     xml:space="preserve"
     style="font-size:6.39318px;font-family:'JetBrainsMonoNL Nerd Font';-inkscape-font-specification:'JetBrainsMonoNL Nerd Font';fill:#e5e5e5;fill-opacity:1;stroke:none;stroke-width:0.899999;stroke-linecap:butt;stroke-linejoin:bevel;stroke-dasharray:none;stroke-opacity:1"
     x="3.2635391"
     y="6.7613578"
     id="text13"
     transform="scale(0.99647705,1.0035354)"><tspan
       id="tspan13"
       style="font-size:6.39318px;fill:#e5e5e5;fill-opacity:1;stroke-width:0.899999"
       x="3.2635391"
       y="6.7613578">MCU</tspan></text><rect
     style="fill:none;stroke:#e6e6e6;stroke-width:0.4;stroke-linejoin:round;stroke-dasharray:none;stroke-opacity:1"
     id="rect1"
     width="49.253761"
     height="39.019028"
     x="0.2"
     y="0.2" /><rect
     style="fill:none;stroke:#e6e6e6;stroke-width:0.4;stroke-linejoin:round;stroke-dasharray:none;stroke-opacity:1"
     id="rect1-9"
     width="49.38327"
     height="39.019028"
     x="74.248634"
     y="0.2" /><rect
     style="fill:none;stroke:#e6e6e6;stroke-width:0.4;stroke-linejoin:round;stroke-dasharray:none;stroke-opacity:1"
     id="rect2"
     width="17.456572"
     height="8.4870033"
     x="0.2"
     y="0.2" /><text
     xml:space="preserve"
     style="font-size:6.39318px;font-family:'JetBrainsMonoNL Nerd Font';-inkscape-font-specification:'JetBrainsMonoNL Nerd Font';fill:#e5e5e5;fill-opacity:1;stroke:none;stroke-width:0.899999;stroke-linecap:butt;stroke-linejoin:bevel;stroke-dasharray:none;stroke-opacity:1"
     x="107.50379"
     y="37.185822"
     id="text13-9"
     transform="scale(0.99647705,1.0035354)"><tspan
       id="tspan13-3"
       style="font-size:6.39318px;fill:#e5e5e5;fill-opacity:1;stroke-width:0.899999"
       x="107.50379"
       y="37.185822">CHIP</tspan></text><rect
     style="fill:none;stroke:#e6e6e6;stroke-width:0.4;stroke-linejoin:round;stroke-dasharray:none;stroke-opacity:1"
     id="rect2-1"
     width="17.456572"
     height="8.4870033"
     x="106.17533"
     y="30.732027" /><rect
     style="fill:none;stroke:#e5e5e5;stroke-width:0.4;stroke-linejoin:round;stroke-dasharray:none;stroke-opacity:1"
     id="rect4"
     width="7.9198933"
     height="11.102802"
     x="41.533867"
     y="21.190037" /><rect
     style="fill:none;stroke:#e6e6e6;stroke-width:0.4;stroke-linejoin:round;stroke-dasharray:none;stroke-opacity:1"
     id="rect4-2"
     width="7.9198933"
     height="11.102802"
     x="74.248634"
     y="21.190037" /><text
     xml:space="preserve"
     style="font-size:4.26211px;font-family:'JetBrainsMonoNL Nerd Font';-inkscape-font-specification:'JetBrainsMonoNL Nerd Font';fill:#e5e5e5;fill-opacity:1;stroke:none;stroke-width:0.2;stroke-linejoin:round;stroke-dasharray:none;stroke-opacity:1"
     x="54.158974"
     y="21.409286"
     id="text4"
     transform="scale(0.99647705,1.0035354)"><tspan
       sodipodi:role="line"
       id="tspan4"
       style="font-size:4.26211px;fill:#e5e5e5;fill-opacity:1;stroke:none;stroke-width:0.2"
       x="54.158974"
       y="21.409286">SERIAL</tspan></text><path
     style="fill:#000000;fill-opacity:1;stroke:#e5e5e5;stroke-width:0.4;stroke-linejoin:round;stroke-dasharray:none;stroke-opacity:1"
     d="M 49.453761,23.307745 H 74.166502"
     id="path4" /><path
     style="fill:#000000;fill-opacity:1;stroke:#e5e5e5;stroke-width:0.4;stroke-linejoin:round;stroke-dasharray:none;stroke-opacity:1"
     d="M 49.453761,30.075618 H 74.248635"
     id="path4-8" /><text
     xml:space="preserve"
     style="font-size:4.26211px;font-family:'JetBrainsMonoNL Nerd Font';-inkscape-font-specification:'JetBrainsMonoNL Nerd Font';fill:#e5e5e5;fill-opacity:1;stroke:#000000;stroke-width:0.2;stroke-linejoin:round;stroke-dasharray:none;stroke-opacity:1"
     x="50.316692"
     y="28.153318"
     id="text8"
     transform="scale(0.99647705,1.0035354)"><tspan
       sodipodi:role="line"
       id="tspan8"
       style="fill:#e5e5e5;fill-opacity:1;stroke:none;stroke-width:0.2"
       x="50.316692"
       y="28.153318">INTERFACE</tspan></text></svg>
